<svg xmlns="http://www.w3.org/2000/svg" width="640" height="380" viewBox="0 0 640 380" fill="none" stroke="#E2C48F" stroke-width="2" stroke-linejoin="round" stroke-linecap="round"><path d="M40 118 L320 34 L600 118 Z"/><path d="M84 110 L320 50 L556 110"/><rect x="40" y="118" width="560" height="22"/><path d="M52 146 V166 M57 146 V166"/><path d="M72 146 V166 M77 146 V166"/><path d="M92 146 V166 M97 146 V166"/><path d="M112 146 V166 M117 146 V166"/><path d="M132 146 V166 M137 146 V166"/><path d="M152 146 V166 M157 146 V166"/><path d="M172 146 V166 M177 146 V166"/><path d="M192 146 V166 M197 146 V166"/><path d="M212 146 V166 M217 146 V166"/><path d="M232 146 V166 M237 146 V166"/><path d="M252 146 V166 M257 146 V166"/><path d="M272 146 V166 M277 146 V166"/><path d="M292 146 V166 M297 146 V166"/><path d="M312 146 V166 M317 146 V166"/><path d="M332 146 V166 M337 146 V166"/><path d="M352 146 V166 M357 146 V166"/><path d="M372 146 V166 M377 146 V166"/><path d="M392 146 V166 M397 146 V166"/><path d="M412 146 V166 M417 146 V166"/><path d="M432 146 V166 M437 146 V166"/><path d="M452 146 V166 M457 146 V166"/><path d="M472 146 V166 M477 146 V166"/><path d="M492 146 V166 M497 146 V166"/><path d="M512 146 V166 M517 146 V166"/><path d="M532 146 V166 M537 146 V166"/><path d="M552 146 V166 M557 146 V166"/><path d="M572 146 V166 M577 146 V166"/><path d="M592 146 V166 M597 146 V166"/><path d="M40 140 H600 M40 170 H600"/><path d="M56.0 170 H100.0 M60.0 178 H96.0"/><path d="M63.0 178 L61.0 330 M93.0 178 L95.0 330"/><path d="M71.0 186 V322" stroke-width="1"/><path d="M78.0 186 V322" stroke-width="1"/><path d="M85.0 186 V322" stroke-width="1"/><path d="M125.1 170 H169.1 M129.1 178 H165.1"/><path d="M132.1 178 L130.1 330 M162.1 178 L164.1 330"/><path d="M140.1 186 V322" stroke-width="1"/><path d="M147.1 186 V322" stroke-width="1"/><path d="M154.1 186 V322" stroke-width="1"/><path d="M194.3 170 H238.3 M198.3 178 H234.3"/><path d="M201.3 178 L199.3 330 M231.3 178 L233.3 330"/><path d="M209.3 186 V322" stroke-width="1"/><path d="M216.3 186 V322" stroke-width="1"/><path d="M223.3 186 V322" stroke-width="1"/><path d="M263.4 170 H307.4 M267.4 178 H303.4"/><path d="M270.4 178 L268.4 330 M300.4 178 L302.4 330"/><path d="M278.4 186 V322" stroke-width="1"/><path d="M285.4 186 V322" stroke-width="1"/><path d="M292.4 186 V322" stroke-width="1"/><path d="M332.6 170 H376.6 M336.6 178 H372.6"/><path d="M339.6 178 L337.6 330 M369.6 178 L371.6 330"/><path d="M347.6 186 V322" stroke-width="1"/><path d="M354.6 186 V322" stroke-width="1"/><path d="M361.6 186 V322" stroke-width="1"/><path d="M401.7 170 H445.7 M405.7 178 H441.7"/><path d="M408.7 178 L406.7 330 M438.7 178 L440.7 330"/><path d="M416.7 186 V322" stroke-width="1"/><path d="M423.7 186 V322" stroke-width="1"/><path d="M430.7 186 V322" stroke-width="1"/><path d="M470.9 170 H514.9 M474.9 178 H510.9"/><path d="M477.9 178 L475.9 330 M507.9 178 L509.9 330"/><path d="M485.9 186 V322" stroke-width="1"/><path d="M492.9 186 V322" stroke-width="1"/><path d="M499.9 186 V322" stroke-width="1"/><path d="M540.0 170 H584.0 M544.0 178 H580.0"/><path d="M547.0 178 L545.0 330 M577.0 178 L579.0 330"/><path d="M555.0 186 V322" stroke-width="1"/><path d="M562.0 186 V322" stroke-width="1"/><path d="M569.0 186 V322" stroke-width="1"/><path d="M30 330 H610 M18 346 H622 M6 362 H634"/></svg>